<svg xmlns="http://www.w3.org/2000/svg" width="24" height="24" version="1.0"><path fill="#010101" d="M11.589 17.892a2.815 2.815 0 0 1-2.813-2.81c0-.748.308-1.456.85-1.967v-5.13c0-.868.858-1.877 1.963-1.877 1.09 0 1.936 1.009 1.936 1.877v5.13c.542.511.85 1.219.85 1.967 0 1.549-1.25 2.81-2.786 2.81zm0-11.084c-.733 0-1.263.703-1.263 1.177v5.287a.349.349 0 0 1-.126.269c-.46.383-.724.945-.724 1.541 0 1.164.948 2.11 2.113 2.11 1.15 0 2.085-.946 2.085-2.11 0-.596-.264-1.157-.724-1.541a.349.349 0 0 1-.126-.269V7.985c.001-.463-.53-1.177-1.235-1.177z"/><path fill="#010101" d="M11.532 14.556a.35.35 0 0 1-.35-.35V12.48a.35.35 0 0 1 .7 0v1.726a.35.35 0 0 1-.35.35z"/><path fill="#010101" d="M11.561 16.337c-.677 0-1.227-.55-1.227-1.227 0-.688.539-1.226 1.227-1.226.684 0 1.2.527 1.2 1.226-.001.677-.539 1.227-1.2 1.227zm0-1.753c-.3 0-.527.226-.527.526 0 .286.241.527.527.527.28 0 .5-.231.5-.527-.001-.309-.207-.526-.5-.526zM14.874 12.548h-1.671a.35.35 0 0 1 0-.7h1.671a.35.35 0 0 1 0 .7zM14.874 10.937h-1.671a.35.35 0 0 1 0-.7h1.671a.35.35 0 0 1 0 .7zM14.874 9.268h-1.671a.35.35 0 0 1 0-.7h1.671a.35.35 0 0 1 0 .7z"/></svg>