<svg xmlns="http://www.w3.org/2000/svg" width="26" height="26"><path d="M13 0C5.826 0 0 5.826 0 13s5.826 13 13 13 13-5.826 13-13S20.174 0 13 0zm0 .969A12.02 12.02 0 0 1 25.031 13c0 6.654-5.377 12.063-12.031 12.063C6.346 25.063.969 19.652.969 13A12.02 12.02 0 0 1 13 .969zm-.406 6.125c-1.105 0-1.969 1.038-1.969 1.906v5.125a2.696 2.696 0 0 0-.844 1.969 2.817 2.817 0 0 0 2.813 2.812c1.536 0 2.781-1.263 2.781-2.812 0-.748-.302-1.458-.844-1.969v-.563h1.344c.193 0 .344-.181.344-.374a.34.34 0 0 0-.344-.344h-1.344v-.906h1.344a.34.34 0 0 0 .344-.344.34.34 0 0 0-.344-.344h-1.344v-.969h1.344c.193 0 .344-.182.344-.375a.34.34 0 0 0-.344-.344h-1.344V9c0-.868-.847-1.906-1.937-1.906zm0 .718c.705 0 1.22.725 1.219 1.188v5.281a.31.31 0 0 0 .124.25c.46.384.75.967.75 1.563a2.093 2.093 0 0 1-2.093 2.093c-1.165 0-2.125-.93-2.125-2.093 0-.596.258-1.18.719-1.563a.31.31 0 0 0 .124-.25V9c0-.474.549-1.188 1.282-1.188zm-.063 5.313a.34.34 0 0 0-.344.344v1.469c-.491.159-.843.636-.843 1.187 0 .677.542 1.219 1.219 1.219.66 0 1.186-.542 1.187-1.219 0-.582-.36-1.05-.875-1.188V13.47a.34.34 0 0 0-.344-.344zm.031 2.469c.293 0 .5.222.5.531 0 .296-.22.5-.5.5-.285 0-.53-.214-.53-.5 0-.3.23-.531.53-.531z" color="#000" font-family="Sans" font-weight="400" overflow="visible" style="text-indent:0;text-align:start;line-height:normal;text-transform:none;block-progression:tb;marker:none;-inkscape-font-specification:Sans"/></svg>